<svg width="128" height="40" viewBox="0 0 128 40" fill="none" xmlns="http://www.w3.org/2000/svg">

<path d="M126.219 22.8624C126.127 24.5167 126.595 26.0665 127.548 27.4766C128.502 28.8867 127.891 30.2464 126.248 30.6695C124.322 31.1655 122.377 31.2448 120.454 30.7135C118.53 30.1822 117.967 28.7747 119.112 27.1518C120.176 25.641 120.589 24.0169 120.54 22.2253C120.491 20.4085 120.445 18.5893 120.346 16.7738C120.312 16.1634 120.192 15.5609 119.989 14.9847C119.456 13.4978 118.538 12.8847 117.131 12.9703C116.077 13.0358 115.057 13.9586 114.778 15.2856C114.498 16.5503 114.311 17.8337 114.216 19.1256C114.109 20.7976 114.165 22.4796 114.126 24.1617C114.101 25.1102 114.379 26.0418 114.921 26.8194C115.105 27.0925 115.272 27.3768 115.422 27.6705C116.08 28.9635 115.689 30.142 114.325 30.5662C112.166 31.236 109.956 31.2889 107.786 30.6015C106.439 30.1747 105.95 28.7533 106.621 27.4867C106.661 27.4014 106.711 27.3208 106.769 27.2462C107.96 25.8613 108.248 24.1793 108.285 22.4255C108.319 20.7951 108.362 19.1646 108.369 17.5342C108.369 16.7071 108.05 15.9844 107.326 15.5551C106.116 14.8387 106.256 13.5054 106.934 12.6933C107.596 11.8748 108.416 11.1993 109.345 10.7075C110.274 10.2157 111.292 9.91777 112.338 9.83161C113.457 9.72711 114.046 10.2093 114.355 11.282C114.615 12.186 114.645 12.1847 115.429 11.593C117.703 9.87693 120.191 9.62639 122.757 10.7431C124.876 11.6635 126.048 13.4009 126.238 15.6923C126.363 17.1704 126.261 18.6673 126.261 20.1555C126.261 21.2156 126.229 21.9672 126.219 22.8624Z" fill="#000"/>
<path d="M61.9681 9.76614C63.6985 9.7951 65.3937 10.0054 66.98 10.7733C68.3395 11.4356 69.05 12.5146 68.8946 13.6955C68.6853 15.2844 67.5526 16.5358 66.1029 16.7826C64.6169 17.0344 63.2825 16.0272 63.0156 14.4471C62.9128 13.8416 62.8151 13.236 62.7023 12.6316C62.5482 11.7994 62.1059 11.4217 61.314 11.4306C60.2565 11.4419 59.5987 11.8926 59.4496 12.6971C59.2353 13.8579 59.605 14.8374 60.5209 15.5173C61.7877 16.4527 63.1434 17.2648 64.4365 18.1612C65.5554 18.9393 66.7407 19.6607 67.7243 20.5911C70.9821 23.6732 70.1977 28.1452 66.1079 29.9959C64.1295 30.8898 62.0495 31.1164 59.8944 30.7689C58.3708 30.5247 56.8872 30.1709 55.5741 29.3362C54.3412 28.5543 53.5305 27.4792 53.751 25.9293C53.949 24.5444 54.6607 23.4667 55.9926 22.8913C57.4022 22.282 59.09 23.0965 59.4483 24.5973C59.6325 25.3728 59.7165 26.1748 59.8242 26.9667C60.0748 28.7155 60.5961 29.1889 62.25 29.0781C63.0306 29.0252 63.7461 28.8074 64.1044 28.0105C64.4628 27.2135 64.355 26.38 63.7761 25.8298C62.7788 24.9097 61.7173 24.0624 60.5998 23.2942C59.2967 22.3701 57.8783 21.6021 56.604 20.6402C55.1756 19.5638 54.1394 18.1902 54.0229 16.2828C53.8675 13.7434 55.0441 11.9921 57.1967 10.8275C58.679 10.0293 60.2878 9.71578 61.9681 9.76614Z" fill="#000" />
<path d="M43.3827 20.3909C42.2037 20.3909 41.0246 20.3809 39.8456 20.3909C38.9685 20.401 38.6728 20.7686 38.7893 21.6499C39.0336 23.5019 39.8268 24.9813 41.6336 25.7178C42.8615 26.2214 44.1207 26.1421 45.3725 25.7593C46.6793 25.359 47.7933 24.6363 48.8295 23.7575C49.1086 23.5179 49.454 23.3698 49.8193 23.3332C50.3782 23.3018 50.7691 23.8985 50.5711 24.4223C48.2531 30.6707 41.5496 32.529 36.6141 29.2229C34.4139 27.7498 33.2962 25.5088 32.805 22.9215C32.4216 20.9071 32.4467 18.9116 33.1584 16.9828C34.4264 13.5444 36.7382 11.2127 40.4056 10.4259C43.4341 9.77621 46.1243 10.3818 48.2581 12.7387C49.2141 13.795 49.9208 15.0212 50.1301 16.4779C50.4446 18.6699 49.2881 20.1706 47.0552 20.3305C45.8386 20.4211 44.1759 20.3985 43.3827 20.3909ZM41.4193 18.1952C41.4882 18.1952 42.4543 18.1889 42.9693 18.1549C44.5906 18.0479 45.4464 17.1301 45.4439 15.5034C45.4342 15.0796 45.3995 14.6566 45.3399 14.2369C45.1256 12.4957 43.6221 11.6005 41.9894 12.2376C40.155 12.9514 38.7154 15.2592 38.8682 17.2409C38.9133 17.8263 39.2228 18.1587 39.7979 18.1889C40.3405 18.2191 40.883 18.1952 41.4193 18.1952Z" fill="#000"/>
<path d="M80.1012 23.4956C80.0699 24.7924 80.3368 25.9683 81.0873 27.036C81.3146 27.3356 81.4877 27.6732 81.5985 28.0331C81.9394 29.3387 81.3241 30.2867 79.9033 30.6229C78.0488 31.061 76.1882 31.1441 74.3099 30.6821C72.4317 30.22 71.6711 28.7016 72.8064 27.1191C73.9842 25.4824 74.2836 23.7046 74.3012 21.7821C74.3112 20.649 74.434 19.5235 74.5092 18.3941C74.5881 17.2056 74.3776 16.1606 73.3151 15.4052C72.438 14.7858 72.3252 13.8592 72.9141 12.9313C73.8363 11.4797 75.2697 10.7318 76.8146 10.1741C77.3687 9.98197 77.9462 9.86676 78.5312 9.83161C79.6138 9.75355 80.1426 10.1413 80.4333 11.1989C80.545 11.6313 80.5898 12.0785 80.5661 12.5246C80.4809 14.388 80.3618 16.25 80.2553 18.1121C80.209 19.4794 80.1463 21.7041 80.1012 23.4956Z" fill="#000" />
<path d="M3.90414 9.7183C6.71458 9.80517 7.36363 10.6311 8.37103 13.3795C9.34209 16.0285 10.0939 18.7618 10.971 21.446C11.2604 22.3411 11.5975 23.2237 11.9471 24.0962C12.0437 24.3281 12.228 24.512 12.4595 24.6073C12.5936 24.6489 12.9056 24.4386 12.987 24.2687C13.9406 22.2719 14.9054 20.2789 15.2061 18.0429C15.4466 16.2576 14.8302 14.8513 13.4206 13.7685C13.2151 13.6112 13.0083 13.4538 12.8154 13.28C11.6626 12.2401 11.7904 11.1234 13.1825 10.4133C14.6071 9.68682 16.1295 9.67675 17.6607 9.96884C18.8297 10.1917 19.4963 11.0466 19.8759 12.0613C20.6891 14.2419 21.4058 16.4603 22.1614 18.6623C22.7954 20.5118 23.4144 22.3638 24.0747 24.2019C24.1209 24.3025 24.189 24.3912 24.2741 24.4616C24.3591 24.532 24.4588 24.5823 24.5659 24.6086C24.7037 24.6275 24.9681 24.4122 25.0232 24.2485C25.7988 21.9534 26.6045 19.6657 27.2786 17.3416C27.6783 15.9731 27.0718 14.7191 26.5268 13.4701C26.1158 12.5259 26.102 11.525 26.7774 10.6512C27.4039 9.84294 28.2747 9.63268 29.2445 9.76992C30.2143 9.90715 30.8433 10.6512 30.8321 11.6672C30.8433 13.066 30.4336 14.4232 29.965 15.7804C28.7659 19.2515 27.3876 22.6584 26.1008 26.098C25.8186 26.8726 25.5781 27.6619 25.3803 28.4624C25.032 29.8171 24.2464 30.6682 22.9082 30.8268C22.0262 30.935 21.1315 30.8648 20.2769 30.6204C19.2144 30.2993 18.9262 29.2267 18.7006 28.2622C18.331 26.6784 18.0742 25.0707 17.7183 23.478C17.5942 22.9512 17.4012 22.4432 17.1444 21.9672C17.0091 21.7078 16.6984 21.3742 16.4703 21.378C16.2423 21.3818 15.9077 21.7015 15.7774 21.9622C15.3021 22.885 14.8792 23.8341 14.5107 24.805C14.0095 26.1773 13.6098 27.5824 13.1537 28.9698C12.7778 30.1029 11.9082 30.7249 10.7981 30.8369C9.93225 30.9238 8.97372 30.8911 8.17556 30.5914C7.63553 30.3875 7.1406 29.6988 6.91005 29.1033C6.62699 28.2806 6.412 27.4359 6.26727 26.5777C5.9227 24.3278 5.19722 22.2391 4.46547 20.1265C4.10211 19.0815 3.77007 18.0164 3.30396 17.018C2.89047 16.1367 2.41559 15.2554 1.79035 14.5C1.52615 14.1995 1.24458 13.9149 0.947091 13.6477C0.343152 13.0786 -0.180596 12.4566 0.0700009 11.5514C0.311827 10.6701 1.04608 10.1804 1.85175 9.98772C2.52139 9.80906 3.21129 9.7185 3.90414 9.7183Z" fill="#000" />
<path d="M77.2236 7.0429C75.3442 7.01394 73.6388 5.42004 73.6564 3.72163C73.6564 1.17717 75.4569 0.00125901 77.3577 0C79.5667 0 80.96 1.90362 80.9488 3.57937C80.9375 5.33191 79.2109 7.0429 77.2236 7.0429Z" fill="#000" />
<path d="M85.8341 32.1677C85.7602 30.0211 86.507 28.1389 87.6497 26.3763C88.7122 24.7395 88.6984 24.6766 87.4429 23.1884C86.6009 22.19 85.8053 21.174 85.4507 19.8798C84.9282 17.9736 85.0397 16.1166 86.0208 14.3905C87.5068 11.7768 89.8336 10.4309 92.7731 10.0482C94.2266 9.85664 95.7037 9.97068 97.111 10.3831C97.8628 10.6021 97.8352 9.98521 98.0106 9.59995C98.4868 8.55119 98.8376 7.42942 99.4303 6.45243C100.295 5.031 101.822 4.63819 103.172 5.30799C104.015 5.72849 104.443 6.75585 104.318 7.53391C103.996 8.74886 103.267 9.3771 102.392 9.44761C101.899 9.48664 101.4 9.46398 100.905 9.49042C100.18 9.52945 99.6082 9.82279 99.2022 10.4661C98.9078 10.9307 98.9767 11.1976 99.4265 11.5136C100.679 12.395 101.698 13.4752 102.32 14.9218C103.866 18.5213 102.158 23.1356 98.6371 24.868C96.8328 25.7493 94.9558 26.1698 92.9561 25.923C91.1305 25.6989 90.4213 26.1156 90.0078 28.4486C89.8349 29.4205 89.6996 30.4252 89.7472 31.406C89.8311 33.1296 90.5153 34.5724 92.1717 35.3605C93.9409 36.2016 96.1976 35.3757 96.9155 33.6722C97.3115 32.7317 96.888 31.9839 96.378 31.3091C95.0774 29.5867 96.4945 26.9201 98.5619 26.5437C100.449 26.2012 102.137 27.1858 102.84 29.0063C104.284 32.7443 102.425 37.2642 98.7486 38.9903C97.0183 39.8023 95.1939 40.1851 93.3157 39.9169C90.3436 39.4914 87.7512 38.3217 86.4243 35.3971C85.9845 34.4138 85.8341 32.2395 85.8341 32.1677ZM90.9551 17.9069C90.93 19.4177 91.1718 20.8693 91.8497 22.2291C92.297 23.128 92.9623 23.7839 94.0236 23.7814C95.0849 23.7789 95.7979 23.1683 96.2189 22.2543C97.5758 19.2905 97.453 16.308 95.9683 13.4638C94.9771 11.5753 92.9611 11.6584 91.9174 13.5331C91.1618 14.884 90.93 16.3696 90.9551 17.9069Z" fill="#000" />


</svg>
